<svg width="480.000000" height="480.000000" viewBox="0 0 480 480" fill="none" xmlns="http://www.w3.org/2000/svg" xmlns:xlink="http://www.w3.org/1999/xlink">
	<desc>
			Created with Pixso.
	</desc>
	<defs>
		<clipPath id="clip14_94">
			<rect id="geekat-logo-brown" width="480.000000" height="480.000000" fill="white" fill-opacity="0"/>
		</clipPath>
	</defs>
	<rect id="geekat-logo-brown" width="480.000000" height="480.000000" fill="#6B5F5F" fill-opacity="0"/>
	<g clip-path="url(#clip14_94)">
		<ellipse id="椭圆 4" cx="240.000000" cy="240.000000" rx="240.000031" ry="240.000000" fill="#FFFFFF" fill-opacity="1.000000"/>
		<rect id="矢量 1" width="431.000000" height="418.000000" transform="translate(25.000000 30.999985)" fill="#FFFFFF" fill-opacity="0"/>
		<path id="矢量 1" d="M79.5 362L79.5 371L83.5 382.5L92 398.5L104.5 412.5L117 424.5L137 434L159.5 440.5L182.5 446L204 449L228.5 449L264 446L297 440.5L322.5 434L346.5 424.5L368 412.5L392.5 398.5L409.5 382.5L427 362L441 343L448 328.5L453 309.5L456 285L456 262.5L456 237.5L453 210L448 182L437 150L424.5 120L414 102.5L397.5 85L374 67.5L348.5 53.5L320.5 42L295.5 34.5L271 31L248.5 31L233.75 31.75L215 33.5L197.75 37.25L184.5 40L167.25 45L154 50L139.5 56.25L127 62.5L114.75 69.75L104.5 77L89.5 90.5L69 114L55.5 132.5L42 158L34.5 182L28.5 207L25 231.5L25 245L28.5 268L34.5 293.5L44.5 317.5L46 320.62L55.5 335.75L58.5 340L63.75 347.25L67 351.5L70.25 354.75L72.5 357L78.5 361.5L79.5 362ZM120 107L120 112.62L120 118.25L120 128.87L119 137.5L117.87 147.62L116.81 157.68L116.75 157.75L115.5 164L114.83 170.28L113.17 181.56L110 210L104.5 245L95 285L88 309.5L83.5 325L82.3 330.38L71.5 317.5L64.5 304L58.5 275.5L55.5 254L55.5 231.5L58.5 210L64.5 188L71.5 169L79.5 150L90 132.5L96.25 123.25L103.5 114L109 108.25L114.5 102.5L121.25 96.5L129 90.5L135.75 85.5L145.5 80.5L152.75 77.25L165 73L177.75 69.25L188.5 66.5L205 62.5L218 60.25L231 58L240.75 58L252.5 58L274.5 62.5L302.5 74L324.5 90.5L344 114L356.5 136L364.5 158L368 182L368 210L366.25 223.75L364.5 231.5L360.5 243.75L357.5 253L355.12 259.87L352.75 266.75L349 275.5L344 285L337 293.5L328.5 300L313 309.5L302.5 313.5L297 315.5L287.75 317.5L283.5 317.5L279 317L273.5 316.5L270 316L265.5 313.5L261 309.75L256.5 304L254.5 300.37L253.5 297.75L252.5 293.12L252.5 289.5L252.5 275.5L252.5 254L252.5 231.5L252.5 220L252.5 210.5L252.5 198L253.5 180.25L253.5 180.5L254.5 160L254.5 150L254.5 149.5L255.5 132.5L256.5 118.75L257.5 102L252.25 108L244 118L239.5 123.5L235 128L232.75 129.75L229.5 132.5L219.5 139.5L210 144L199.5 147L183.5 148L175.5 147.5L167.5 147L162.25 145.5L157 143L151.75 140L146.5 136L138.5 129.5L129 120L120 107Z" fill="#6B5F5F" fill-opacity="1.000000" fill-rule="evenodd"/>
		<path id="矢量 1" d="M82.3 330.38L71.5 317.5L64.5 304L58.5 275.5L55.5 254L55.5 231.5L58.5 210L64.5 188L71.5 169L79.5 150L90 132.5L96.25 123.25L103.5 114L109 108.25L114.5 102.5L121.25 96.5L129 90.5L135.75 85.5L145.5 80.5L152.75 77.25L165 73L177.75 69.25L188.5 66.5L205 62.5L218 60.25L231 58L240.75 58L252.5 58L274.5 62.5L302.5 74L324.5 90.5L344 114L356.5 136L364.5 158L368 182L368 210L366.25 223.75L364.5 231.5L360.5 243.75L357.5 253L355.12 259.87L352.75 266.75L349 275.5L344 285L337 293.5L328.5 300L313 309.5L302.5 313.5L297 315.5L287.75 317.5L283.5 317.5L279 317L273.5 316.5L270 316L265.5 313.5L261 309.75L256.5 304L254.5 300.37L253.5 297.75L252.5 293.12L252.5 289.5L252.5 275.5L252.5 254L252.5 231.5L252.5 220L252.5 210.5L252.5 198L253.5 180.25L253.5 180.5L254.5 160L254.5 150L254.5 149.5L255.5 132.5L256.5 118.75L257.5 102L252.25 108L244 118L239.5 123.5L235 128L232.75 129.75L229.5 132.5L219.5 139.5L210 144L199.5 147L183.5 148L175.5 147.5L167.5 147L162.25 145.5L157 143L151.75 140L146.5 136L138.5 129.5L129 120L120 107L120 112.62L120 118.25L120 128.87L119 137.5L117.87 147.62L116.81 157.68L116.75 157.75L115.5 164L114.83 170.28L113.17 181.56L110 210L104.5 245L95 285L88 309.5L83.5 325L82.3 330.38L81.5 334L79.5 343L79.5 362L79.5 371L83.5 382.5L92 398.5L104.5 412.5L117 424.5L137 434L159.5 440.5L182.5 446L204 449L228.5 449L264 446L297 440.5L322.5 434L346.5 424.5L368 412.5L392.5 398.5L409.5 382.5L427 362L441 343L448 328.5L453 309.5L456 285L456 262.5L456 237.5L453 210L448 182L437 150L424.5 120L414 102.5L397.5 85L374 67.5L348.5 53.5L320.5 42L295.5 34.5L271 31L248.5 31L233.75 31.75L215 33.5L197.75 37.25L184.5 40L167.25 45L154 50L139.5 56.25L127 62.5L114.75 69.75L104.5 77L89.5 90.5L69 114L55.5 132.5L42 158L34.5 182L28.5 207L25 231.5L25 245L28.5 268L34.5 293.5L44.5 317.5L46 320.62L55.5 335.75L58.5 340L63.75 347.25L67 351.5L70.25 354.75L72.5 357L78.5 361.5L79.5 362" stroke="#000000" stroke-opacity="1.000000" stroke-width="4.000000"/>
		<circle id="椭圆 1" cx="152.500000" cy="197.499969" r="8.000000" fill="#000000" fill-opacity="1.000000"/>
		<circle id="椭圆 1" cx="204.500000" cy="198.499969" r="8.000000" fill="#000000" fill-opacity="1.000000"/>
	</g>
</svg>
