<?xml version="1.0" standalone="no"?><!DOCTYPE svg PUBLIC "-//W3C//DTD SVG 1.1//EN" "http://www.w3.org/Graphics/SVG/1.1/DTD/svg11.dtd"><svg t="1758812153315" class="icon" viewBox="0 0 1024 1024" version="1.1" xmlns="http://www.w3.org/2000/svg" p-id="20358" xmlns:xlink="http://www.w3.org/1999/xlink" width="200" height="200"><path d="M414.094222 448.663704l172.050963 432.298666a37.925926 37.925926 0 0 1-32.426666 51.844741l-2.806519 0.094815H151.703704a37.925926 37.925926 0 0 1-37.831111-35.081482L113.777778 894.957037V580.456296a151.779556 151.779556 0 0 0 185.078518-16.649481l3.982223-3.868445 111.255703-111.255703z m79.397926-291.328a113.777778 113.777778 0 0 1 0 160.90074L278.945185 532.783407a113.777778 113.777778 0 0 1-160.900741-160.919703L332.591407 157.335704a113.777778 113.777778 0 0 1 160.900741 0zM153.979259 411.117037a56.888889 56.888889 0 1 0 80.440889 80.459852A56.888889 56.888889 0 0 0 153.979259 411.117037zM834.37037 94.814815a37.925926 37.925926 0 1 1 0 75.851852h-57.799111C746.609778 170.666667 720.592593 199.547259 720.592593 237.037037s25.998222 66.37037 55.978666 66.37037H834.37037a37.925926 37.925926 0 1 1 0 75.851852h-57.799111c-51.2 0-94.852741-31.099259-116.754963-76.117333-1.839407 0.18963-3.697778 0.265481-5.594074 0.265481h-119.314963a151.817481 151.817481 0 0 0 24.594963-132.74074H654.222222c1.896296 0 3.754667 0.075852 5.613037 0.227555C681.718519 125.914074 725.371259 94.814815 776.571259 94.814815z m-422.381037 104.087704a37.925926 37.925926 0 1 0 0 75.851851 37.925926 37.925926 0 0 0 0-75.851851z" fill="#000000" p-id="20359"></path></svg>