<?xml version="1.0" standalone="no"?><!DOCTYPE svg PUBLIC "-//W3C//DTD SVG 1.1//EN" "http://www.w3.org/Graphics/SVG/1.1/DTD/svg11.dtd"><svg t="1758811057328" class="icon" viewBox="0 0 1024 1024" version="1.1" xmlns="http://www.w3.org/2000/svg" p-id="7147" xmlns:xlink="http://www.w3.org/1999/xlink" width="200" height="200"><path d="M712.624781 196.1279h31.149726q38.071887 0 70.952152 17.88225t53.069902 49.608822Q887.986198 295.345544 890.293585 333.417431l31.149726 514.547314q3.461081 41.532967-16.15171 77.297467t-54.223596 57.10783Q816.457199 1003.713372 774.924232 1003.713372H232.688272q-41.532967 0-76.143773-21.34333T102.320903 925.262212q-19.61279-35.764499-16.151709-77.297467l31.149725-514.547314q2.307387-38.071887 22.497024-69.798459t53.069903-49.608822Q225.766111 196.1279 263.837998 196.1279h31.149725q3.461081-54.223596 32.303419-99.217643t75.566926-70.952153Q449.582656 0 503.806252 0t100.948184 25.958104Q651.479024 51.916209 680.321362 96.910257t32.303419 99.217643zM294.987723 268.810593h-31.149725q-28.842338 0-50.185669 20.189637T190.001612 338.032205l-31.149726 514.547315q-1.153694 31.149725 20.766484 54.800442t53.069902 23.650718h542.23596q31.149725 0 53.069902-23.650718t20.766484-54.800442l-31.149725-514.547315q-2.307387-28.842338-23.650718-49.031975T743.774507 268.810593h-31.149726v86.527015q0 14.998016-10.960088 25.381257t-25.958105 10.383242q-14.998016 0-25.958104-10.383242t-10.960089-25.381257V268.810593H368.824109v86.527015q0 14.998016-10.960088 25.381257t-25.958105 10.383242q-14.998016 0-25.958104-10.383242t-10.960089-25.381257z m73.836386-72.682693h269.964286q-4.614774-51.916209-43.263507-87.680708T503.806252 72.682692q-53.069902 0-91.718636 35.7645T368.824109 196.1279z" p-id="7148"></path></svg>